rat_kapali_dongu_referansli_zemin_x10_YAVAS4x
version=1
nRows=69
nColumns=15
inDegrees=yes
endheader
time	sacrum_pitch	sacrum_roll	sacrum_yaw	sacrum_x	sacrum_y	sacrum_z	sacroiliac_flx	hip_flx	hip_add	hip_int	knee_flx	ankle_flx	ankle_add	ankle_int
5.417600	22.370217	0.000000	0.000000	0.000000	0.672500	0.000000	3.700000	10.553668	-10.000000	0.000000	-119.617927	-4.445485	-5.000000	0.000000
5.418400	22.370217	0.000000	0.000000	0.000000	0.672500	0.000000	3.700000	10.520485	-10.000000	0.000000	-119.624864	-4.481907	-5.000000	0.000000
5.419200	22.370217	0.000000	0.000000	0.000000	0.672500	0.000000	3.700000	10.487824	-10.000000	0.000000	-119.632171	-4.518093	-5.000000	0.000000
5.420000	22.370217	0.000000	0.000000	0.000000	0.672500	0.000000	3.700000	10.455658	-10.000000	0.000000	-119.639727	-4.553964	-5.000000	0.000000
5.420800	22.370217	0.000000	0.000000	0.000000	0.672500	0.000000	3.700000	10.423965	-10.000000	0.000000	-119.647421	-4.589448	-5.000000	0.000000
5.421600	22.370217	0.000000	0.000000	0.000000	0.672500	0.000000	3.700000	10.392724	-10.000000	0.000000	-119.655156	-4.624487	-5.000000	0.000000
5.422400	22.370217	0.000000	0.000000	0.000000	0.672500	0.000000	3.700000	10.361920	-10.000000	0.000000	-119.662850	-4.659038	-5.000000	0.000000
5.423200	22.370217	0.000000	0.000000	0.000000	0.672500	0.000000	3.700000	10.331538	-10.000000	0.000000	-119.670437	-4.693072	-5.000000	0.000000
5.424000	22.370217	0.000000	0.000000	0.000000	0.672500	0.000000	3.700000	10.301569	-10.000000	0.000000	-119.677868	-4.726577	-5.000000	0.000000
5.424800	22.370217	0.000000	0.000000	0.000000	0.672500	0.000000	3.700000	10.272007	-10.000000	0.000000	-119.685116	-4.759549	-5.000000	0.000000
5.425600	22.370217	0.000000	0.000000	0.000000	0.672500	0.000000	3.700000	10.242849	-10.000000	0.000000	-119.692189	-4.791989	-5.000000	0.000000
5.426400	22.370217	0.000000	0.000000	0.000000	0.672500	0.000000	3.700000	10.214108	-10.000000	0.000000	-119.699212	-4.823886	-5.000000	0.000000
5.427200	22.370217	0.000000	0.000000	0.000000	0.672500	0.000000	3.700000	10.185795	-10.000000	0.000000	-119.706318	-4.855265	-5.000000	0.000000
5.428000	22.370217	0.000000	0.000000	0.000000	0.672500	0.000000	3.700000	10.157921	-10.000000	0.000000	-119.713639	-4.886177	-5.000000	0.000000
5.428800	22.370217	0.000000	0.000000	0.000000	0.672500	0.000000	3.700000	10.130494	-10.000000	0.000000	-119.721292	-4.916688	-5.000000	0.000000
5.429600	22.370217	0.000000	0.000000	0.000000	0.672500	0.000000	3.700000	10.103521	-10.000000	0.000000	-119.729380	-4.946864	-5.000000	0.000000
5.430400	22.370217	0.000000	0.000000	0.000000	0.672500	0.000000	3.700000	10.077001	-10.000000	0.000000	-119.737988	-4.976767	-5.000000	0.000000
5.431200	22.370217	0.000000	0.000000	0.000000	0.672500	0.000000	3.700000	10.050935	-10.000000	0.000000	-119.747185	-5.006445	-5.000000	0.000000
5.432000	22.370217	0.000000	0.000000	0.000000	0.672500	0.000000	3.700000	10.025317	-10.000000	0.000000	-119.757022	-5.035931	-5.000000	0.000000
5.432800	22.370217	0.000000	0.000000	0.000000	0.672500	0.000000	3.700000	10.000140	-10.000000	0.000000	-119.767533	-5.065244	-5.000000	0.000000
5.433600	22.370217	0.000000	0.000000	0.000000	0.672500	0.000000	3.700000	9.975389	-10.000000	0.000000	-119.778673	-5.094367	-5.000000	0.000000
5.434400	22.370217	0.000000	0.000000	0.000000	0.672500	0.000000	3.700000	9.951042	-10.000000	0.000000	-119.790341	-5.123257	-5.000000	0.000000
5.435200	22.370217	0.000000	0.000000	0.000000	0.672500	0.000000	3.700000	9.927078	-10.000000	0.000000	-119.802417	-5.151868	-5.000000	0.000000
5.436000	22.370217	0.000000	0.000000	0.000000	0.672500	0.000000	3.700000	9.903474	-10.000000	0.000000	-119.814776	-5.180156	-5.000000	0.000000
5.436800	22.370217	0.000000	0.000000	0.000000	0.672500	0.000000	3.700000	9.880213	-10.000000	0.000000	-119.827299	-5.208084	-5.000000	0.000000
5.437600	22.370217	0.000000	0.000000	0.000000	0.672500	0.000000	3.700000	9.857279	-10.000000	0.000000	-119.839881	-5.235623	-5.000000	0.000000
5.438400	22.370217	0.000000	0.000000	0.000000	0.672500	0.000000	3.700000	9.834659	-10.000000	0.000000	-119.852429	-5.262752	-5.000000	0.000000
5.439200	22.370217	0.000000	0.000000	0.000000	0.672500	0.000000	3.700000	9.812344	-10.000000	0.000000	-119.864870	-5.289455	-5.000000	0.000000
5.440000	22.370217	0.000000	0.000000	0.000000	0.672500	0.000000	3.700000	9.790329	-10.000000	0.000000	-119.877147	-5.315721	-5.000000	0.000000
5.440800	22.370217	0.000000	0.000000	0.000000	0.672500	0.000000	3.700000	9.768615	-10.000000	0.000000	-119.889248	-5.341549	-5.000000	0.000000
5.441600	22.370217	0.000000	0.000000	0.000000	0.672500	0.000000	3.700000	9.747213	-10.000000	0.000000	-119.901248	-5.366944	-5.000000	0.000000
5.442400	22.370217	0.000000	0.000000	0.000000	0.672500	0.000000	3.700000	9.726137	-10.000000	0.000000	-119.913251	-5.391926	-5.000000	0.000000
5.443200	22.370217	0.000000	0.000000	0.000000	0.672500	0.000000	3.700000	9.705407	-10.000000	0.000000	-119.925397	-5.416524	-5.000000	0.000000
5.444000	22.370217	0.000000	0.000000	0.000000	0.672500	0.000000	3.700000	9.685041	-10.000000	0.000000	-119.937821	-5.440774	-5.000000	0.000000
5.444800	22.370217	0.000000	0.000000	0.000000	0.672500	0.000000	3.700000	9.665055	-10.000000	0.000000	-119.950647	-5.464713	-5.000000	0.000000
5.445600	22.370217	0.000000	0.000000	0.000000	0.672500	0.000000	3.700000	9.645465	-10.000000	0.000000	-119.963989	-5.488371	-5.000000	0.000000
5.446400	22.370217	0.000000	0.000000	0.000000	0.672500	0.000000	3.700000	9.626283	-10.000000	0.000000	-119.977942	-5.511774	-5.000000	0.000000
5.447200	22.370217	0.000000	0.000000	0.000000	0.672500	0.000000	3.700000	9.607521	-10.000000	0.000000	-119.992589	-5.534936	-5.000000	0.000000
5.448000	22.370217	0.000000	0.000000	0.000000	0.672500	0.000000	3.700000	9.589187	-10.000000	0.000000	-120.007989	-5.557863	-5.000000	0.000000
5.448800	22.370217	0.000000	0.000000	0.000000	0.672500	0.000000	3.700000	9.571281	-10.000000	0.000000	-120.024129	-5.580509	-5.000000	0.000000
5.449600	22.370217	0.000000	0.000000	0.000000	0.672500	0.000000	3.700000	9.553800	-10.000000	0.000000	-120.040951	-5.602825	-5.000000	0.000000
5.450400	22.370217	0.000000	0.000000	0.000000	0.672500	0.000000	3.700000	9.536733	-10.000000	0.000000	-120.058331	-5.624739	-5.000000	0.000000
5.451200	22.370217	0.000000	0.000000	0.000000	0.672500	0.000000	3.700000	9.520070	-10.000000	0.000000	-120.076127	-5.646208	-5.000000	0.000000
5.452000	22.370217	0.000000	0.000000	0.000000	0.672500	0.000000	3.700000	9.503803	-10.000000	0.000000	-120.094196	-5.667213	-5.000000	0.000000
5.452800	22.370217	0.000000	0.000000	0.000000	0.672500	0.000000	3.700000	9.487927	-10.000000	0.000000	-120.112408	-5.687755	-5.000000	0.000000
5.453600	22.370217	0.000000	0.000000	0.000000	0.672500	0.000000	3.700000	9.472439	-10.000000	0.000000	-120.130642	-5.707835	-5.000000	0.000000
5.454400	22.370217	0.000000	0.000000	0.000000	0.672500	0.000000	3.700000	9.457338	-10.000000	0.000000	-120.148794	-5.727458	-5.000000	0.000000
5.455200	22.370217	0.000000	0.000000	0.000000	0.672500	0.000000	3.700000	9.442627	-10.000000	0.000000	-120.166779	-5.746628	-5.000000	0.000000
5.456000	22.370217	0.000000	0.000000	0.000000	0.672500	0.000000	3.700000	9.428316	-10.000000	0.000000	-120.184558	-5.765359	-5.000000	0.000000
5.456800	22.370217	0.000000	0.000000	0.000000	0.672500	0.000000	3.700000	9.414420	-10.000000	0.000000	-120.202151	-5.783681	-5.000000	0.000000
5.457600	22.370217	0.000000	0.000000	0.000000	0.672500	0.000000	3.700000	9.400960	-10.000000	0.000000	-120.219643	-5.801632	-5.000000	0.000000
5.458400	22.370217	0.000000	0.000000	0.000000	0.672500	0.000000	3.700000	9.387966	-10.000000	0.000000	-120.237187	-5.819255	-5.000000	0.000000
5.459200	22.370217	0.000000	0.000000	0.000000	0.672500	0.000000	3.700000	9.375466	-10.000000	0.000000	-120.254937	-5.836566	-5.000000	0.000000
5.460000	22.370217	0.000000	0.000000	0.000000	0.672500	0.000000	3.700000	9.363486	-10.000000	0.000000	-120.273042	-5.853568	-5.000000	0.000000
5.460800	22.370217	0.000000	0.000000	0.000000	0.672500	0.000000	3.700000	9.352050	-10.000000	0.000000	-120.291644	-5.870259	-5.000000	0.000000
5.461600	22.370217	0.000000	0.000000	0.000000	0.672500	0.000000	3.700000	9.341181	-10.000000	0.000000	-120.310868	-5.886635	-5.000000	0.000000
5.462400	22.370217	0.000000	0.000000	0.000000	0.672500	0.000000	3.700000	9.330900	-10.000000	0.000000	-120.330827	-5.902691	-5.000000	0.000000
5.463200	22.370217	0.000000	0.000000	0.000000	0.672500	0.000000	3.700000	9.321224	-10.000000	0.000000	-120.351608	-5.918421	-5.000000	0.000000
5.464000	22.370217	0.000000	0.000000	0.000000	0.672500	0.000000	3.700000	9.312162	-10.000000	0.000000	-120.373245	-5.933805	-5.000000	0.000000
5.464800	22.370217	0.000000	0.000000	0.000000	0.672500	0.000000	3.700000	9.303721	-10.000000	0.000000	-120.395726	-5.948825	-5.000000	0.000000
5.465600	22.370217	0.000000	0.000000	0.000000	0.672500	0.000000	3.700000	9.295891	-10.000000	0.000000	-120.418925	-5.963436	-5.000000	0.000000
5.466400	22.370217	0.000000	0.000000	0.000000	0.672500	0.000000	3.700000	9.288659	-10.000000	0.000000	-120.442686	-5.977612	-5.000000	0.000000
5.467200	22.370217	0.000000	0.000000	0.000000	0.672500	0.000000	3.700000	9.282013	-10.000000	0.000000	-120.466856	-5.991344	-5.000000	0.000000
5.468000	22.370217	0.000000	0.000000	0.000000	0.672500	0.000000	3.700000	9.275943	-10.000000	0.000000	-120.491284	-6.004627	-5.000000	0.000000
5.468800	22.370217	0.000000	0.000000	0.000000	0.672500	0.000000	3.700000	9.270439	-10.000000	0.000000	-120.515828	-6.017457	-5.000000	0.000000
5.469600	22.370217	0.000000	0.000000	0.000000	0.672500	0.000000	3.700000	9.265492	-10.000000	0.000000	-120.540359	-6.029831	-5.000000	0.000000
5.470400	22.370217	0.000000	0.000000	0.000000	0.672500	0.000000	3.700000	9.261094	-10.000000	0.000000	-120.564767	-6.041745	-5.000000	0.000000
5.471200	22.370217	0.000000	0.000000	0.000000	0.672500	0.000000	3.700000	9.257241	-10.000000	0.000000	-120.588974	-6.053200	-5.000000	0.000000
5.472000	22.370217	0.000000	0.000000	0.000000	0.672500	0.000000	3.700000	9.253933	-10.000000	0.000000	-120.612940	-6.064203	-5.000000	0.000000
